HIERARCHY
ROOT Hips
{
	OFFSET 0.00000 0.00000 0.00000
	CHANNELS 6 Xposition Yposition Zposition Zrotation Yrotation Xrotation 
	JOINT LHipJoint
	{
		OFFSET 0 0 0
		CHANNELS 3 Zrotation Yrotation Xrotation
		JOINT LeftUpLeg
		{
			OFFSET 1.26600 -1.82114 0.91038
			CHANNELS 3 Zrotation Yrotation Xrotation
			JOINT LeftLeg
			{
				OFFSET 2.50076 -6.87080 0.00000
				CHANNELS 3 Zrotation Yrotation Xrotation
				JOINT LeftFoot
				{
					OFFSET 2.57364 -7.07102 0.00000
					CHANNELS 3 Zrotation Yrotation Xrotation
					JOINT LeftToeBase
					{
						OFFSET 0.13572 -0.37290 1.97004
						CHANNELS 3 Zrotation Yrotation Xrotation
						End Site
						{
							OFFSET 0.00000 -0.00000 1.01383
						}
					}
				}
			}
		}
	}
	JOINT RHipJoint
	{
		OFFSET 0 0 0
		CHANNELS 3 Zrotation Yrotation Xrotation
		JOINT RightUpLeg
		{
			OFFSET -1.20803 -1.82114 0.91038
			CHANNELS 3 Zrotation Yrotation Xrotation
			JOINT RightLeg
			{
				OFFSET -2.54916 -7.00377 0.00000
				CHANNELS 3 Zrotation Yrotation Xrotation
				JOINT RightFoot
				{
					OFFSET -2.56374 -7.04382 0.00000
					CHANNELS 3 Zrotation Yrotation Xrotation
					JOINT RightToeBase
					{
						OFFSET -0.23520 -0.64621 2.09921
						CHANNELS 3 Zrotation Yrotation Xrotation
						End Site
						{
							OFFSET -0.00000 -0.00000 1.10065
						}
					}
				}
			}
		}
	}
	JOINT LowerBack
	{
		OFFSET 0 0 0
		CHANNELS 3 Zrotation Yrotation Xrotation
		JOINT Spine
		{
			OFFSET 0.05492 2.10797 -0.12074
			CHANNELS 3 Zrotation Yrotation Xrotation
			JOINT Spine1
			{
				OFFSET 0.04577 2.11592 -0.04483
				CHANNELS 3 Zrotation Yrotation Xrotation
				JOINT Neck
				{
					OFFSET 0 0 0
					CHANNELS 3 Zrotation Yrotation Xrotation
					JOINT Neck1
					{
						OFFSET -0.10759 1.80167 0.15770
						CHANNELS 3 Zrotation Yrotation Xrotation
						JOINT Head
						{
							OFFSET 0.09237 1.77509 -0.40848
							CHANNELS 3 Zrotation Yrotation Xrotation
							End Site
							{
								OFFSET 0.03805 1.84093 -0.15754
							}
						}
					}
				}
				JOINT LeftShoulder
				{
					OFFSET 0 0 0
					CHANNELS 3 Zrotation Yrotation Xrotation
					JOINT LeftArm
					{
						OFFSET 3.42372 1.09575 -0.28209
						CHANNELS 3 Zrotation Yrotation Xrotation
						JOINT LeftForeArm
						{
							OFFSET 4.95681 -0.00000 0.00000
							CHANNELS 3 Zrotation Yrotation Xrotation
							JOINT LeftHand
							{
								OFFSET 3.40915 -0.00000 0.00000
								CHANNELS 3 Zrotation Yrotation Xrotation
								JOINT LeftFingerBase
								{
									OFFSET 0 0 0
									CHANNELS 3 Zrotation Yrotation Xrotation
									JOINT LeftHandIndex1
									{
										OFFSET 0.61640 -0.00000 0.00000
										CHANNELS 3 Zrotation Yrotation Xrotation
										End Site
										{
											OFFSET 0.49696 -0.00000 0.00000
										}
									}
								}
								JOINT LThumb
								{
									OFFSET 0 0 0
									CHANNELS 3 Zrotation Yrotation Xrotation
									End Site
									{
										OFFSET 0.50455 -0.00000 0.50455
									}
								}
							}
						}
					}
				}
				JOINT RightShoulder
				{
					OFFSET 0 0 0
					CHANNELS 3 Zrotation Yrotation Xrotation
					JOINT RightArm
					{
						OFFSET -3.24731 1.15872 -0.32221
						CHANNELS 3 Zrotation Yrotation Xrotation
						JOINT RightForeArm
						{
							OFFSET -5.35200 -0.00000 0.00000
							CHANNELS 3 Zrotation Yrotation Xrotation
							JOINT RightHand
							{
								OFFSET -3.43721 -0.00000 -0.00000
								CHANNELS 3 Zrotation Yrotation Xrotation
								JOINT RightFingerBase
								{
									OFFSET 0 0 0
									CHANNELS 3 Zrotation Yrotation Xrotation
									JOINT RightHandIndex1
									{
										OFFSET -0.72009 -0.00000 0.00000
										CHANNELS 3 Zrotation Yrotation Xrotation
										End Site
										{
											OFFSET -0.58056 -0.00000 0.00000
										}
									}
								}
								JOINT RThumb
								{
									OFFSET 0 0 0
									CHANNELS 3 Zrotation Yrotation Xrotation
									End Site
									{
										OFFSET -0.58942 -0.00000 0.58942
									}
								}
							}
						}
					}
				}
			}
		}
	}
}
MOTION
Frames: 12
Frame Time: .0083333
-2.2788 16.9389 -22.4297 0 0 0 0 0 0 -21 0 0 0 0 0 0 0 0 0 0 0 0 0 0 21 0 0 0 0 0 0 0 0 0 0 0 0 0 0 0 0 0 0 0 0 0 0 -16 0 0 21 0 0 11 0 0 0 -8 0 0 0 0 0 0 0 0 0 0 0 0 0 0 0 0 0 0 0 0 8 0 0 0 0 0 0 0 0 0 0 0 0 0 0 0 0 0
-2.2788 16.9389 -22.4297 -4.3511 10.1715 1.0105 0.0000 0.0000 0.0000 -14.5806 -9.2294 -13.0694 4.0942 12.2848 36.7469 0.0312 -20.4945 -14.6794 0.1504 2.4994 6.8881 0.0000 0.0000 0.0000 28.0573 -2.9326 -13.2837 -3.9571 -12.1030 36.0975 -1.9537 -1.9488 -27.1784 -0.1135 -2.1719 5.9809 5.3761 1.2780 1.7133 2.7146 1.9315 -1.6019 -0.2887 0.8935 -2.5312 -2.6598 3.7675 -17.6313 -5.4402 8.2752 29.3985 -0.2920 2.6644 12.9408 -0.0000 -0.0000 0.0000 -92.0302 5.9126 23.6355 14.3350 -23.2116 -2.9589 -0.0000 0.0000 -0.4623 16.3956 23.7282 6.7523 -7.1250 0.0000 -0.0000 -13.5272 54.0858 -3.0638 -0.0000 -0.0000 0.0000 89.1325 -4.9452 12.1804 -13.0853 21.4120 -2.4843 0.0000 -0.0000 -7.7143 -21.6931 9.6398 -3.8111 7.1250 -0.0000 -0.0000 3.7633 -19.6321 2.2850
-2.2794 16.9377 -22.4301 -4.5192 10.1188 0.9757 0.0000 0.0000 0.0000 -14.3901 -9.1831 -13.1242 4.1164 12.3137 36.8509 0.0411 -20.4650 -14.7380 0.1428 2.4351 6.7098 0.0000 0.0000 0.0000 28.2348 -2.9195 -13.2109 -3.9379 -12.0773 36.0059 -1.9603 -1.8229 -27.1733 -0.1278 -2.3049 6.3490 5.5317 1.2617 1.6641 2.7825 1.9080 -1.5341 -0.3024 0.8827 -2.4322 -2.7841 3.7175 -17.8076 -5.3303 8.2352 29.5825 -0.2317 2.6346 13.0421 0.0000 0.0000 0.0000 -92.1248 5.7834 22.7489 14.2378 -23.0737 -2.9207 -0.0000 -0.0000 0.7794 18.3126 22.2239 7.1351 -7.1250 0.0000 -0.0000 -10.9558 52.9350 -2.1596 0.0000 0.0000 0.0000 89.0298 -4.8501 12.4010 -13.0025 21.2909 -2.4542 0.0000 -0.0000 -7.7372 -21.6215 8.3601 -3.2982 7.1250 -0.0000 -0.0000 3.7905 -21.0054 2.1846
-2.2803 16.9403 -22.4295 -4.7114 10.1037 0.9781 0.0000 0.0000 0.0000 -14.1538 -9.1011 -13.2756 4.1484 12.3553 37.0009 0.0140 -20.5853 -14.6061 0.1759 2.7019 7.4498 0.0000 0.0000 0.0000 28.4667 -2.7932 -13.1268 -3.9132 -12.0440 35.8880 -1.9611 -1.8377 -27.1841 -0.1426 -2.4336 6.7055 5.7019 1.2242 1.6139 2.8938 1.8576 -1.4671 -0.2786 0.8588 -2.3359 -2.8841 3.6724 -18.0030 -5.3702 8.2304 29.6250 -0.2269 2.6078 13.1005 0.0000 -0.0000 0.0000 -92.3191 5.6526 22.3907 14.2278 -23.0595 -2.9168 -0.0000 -0.0000 0.8253 18.2892 22.0519 7.0736 -7.1250 0.0000 -0.0000 -10.9107 52.7570 -2.1027 0.0000 -0.0000 0.0000 88.9136 -4.8709 12.6500 -13.2111 21.5958 -2.5305 0.0000 -0.0000 -7.7424 -21.5673 6.4405 -2.5387 7.1250 -0.0000 -0.0000 3.8135 -23.0630 2.0191
-2.2826 16.9389 -22.4300 -4.8651 10.1380 0.9898 0.0000 0.0000 0.0000 -13.9251 -8.9298 -13.4876 4.1715 12.3851 37.1084 -0.0033 -20.9045 -14.6940 0.1503 2.4980 6.8840 0.0000 0.0000 0.0000 28.6617 -2.7861 -13.1300 -3.8946 -12.0188 35.7987 -1.9380 -1.9896 -27.0889 -0.1315 -2.3373 6.4389 5.9324 1.2060 1.6101 2.8946 1.8402 -1.4822 -0.4050 0.8458 -2.3439 -2.7967 3.6241 -17.8913 -5.4648 8.1447 29.5286 -0.2945 2.5741 13.0443 0.0000 -0.0000 0.0000 -92.3167 5.6925 22.5268 14.2785 -23.1314 -2.9366 -0.0000 -0.0000 0.2250 14.2824 23.6098 5.8216 -7.1250 0.0000 -0.0000 -15.5772 53.5788 -3.3495 0.0000 -0.0000 0.0000 88.9784 -4.9019 12.5607 -13.3326 21.7726 -2.5753 0.0000 -0.0000 -7.3138 -21.8457 7.5245 -3.0051 7.1250 -0.0000 -0.0000 3.6169 -21.8866 2.0119
-2.2830 16.9361 -22.4319 -5.0199 10.1547 0.9812 0.0000 0.0000 0.0000 -13.7102 -8.8086 -13.6424 4.1907 12.4099 37.1978 -0.0060 -21.1147 -14.8228 0.1220 2.2517 6.2018 0.0000 0.0000 0.0000 28.8314 -2.9301 -13.1789 -3.8768 -11.9946 35.7130 -1.9149 -2.0476 -26.9552 -0.1157 -2.1926 6.0383 6.2298 1.2108 1.6713 2.8349 1.8622 -1.5415 -0.6341 0.8480 -2.4284 -3.0013 3.5640 -17.8686 -5.0691 8.0073 29.6966 -0.1313 2.5381 13.0733 0.0000 0.0000 0.0000 -92.1868 5.8113 22.5288 14.2867 -23.1431 -2.9398 -0.0000 -0.0000 0.0788 17.7235 22.3246 6.9217 -7.1250 0.0000 -0.0000 -11.5842 52.9303 -2.2847 0.0000 0.0000 0.0000 89.0899 -4.9273 12.3823 -13.3548 21.8049 -2.5836 0.0000 -0.0000 -6.5148 -21.9854 7.8247 -3.1461 7.1250 -0.0000 -0.0000 3.5190 -21.5562 1.9836
-2.2853 16.9364 -22.4328 -5.0467 10.1983 1.0094 0.0000 0.0000 0.0000 -13.6575 -8.8444 -13.7092 4.2019 12.4244 37.2503 -0.0041 -21.1364 -14.8534 0.1138 2.1750 5.9894 0.0000 0.0000 0.0000 28.8739 -2.9003 -13.1783 -3.8640 -11.9772 35.6512 -1.9165 -2.0234 -26.9565 -0.1246 -2.2753 6.2672 6.2891 1.2348 1.6629 2.8133 1.8937 -1.5265 -0.6898 0.8633 -2.4040 -3.4556 3.4683 -17.9393 -4.4907 7.8299 29.7442 0.1395 2.4842 13.0518 -0.0000 0.0000 0.0000 -92.1697 5.7724 22.8394 14.3294 -23.2037 -2.9567 -0.0000 0.0000 -0.4553 17.6196 22.8179 7.0215 -7.1250 0.0000 -0.0000 -11.8939 53.4065 -2.4867 -0.0000 0.0000 0.0000 89.0492 -4.7385 12.6097 -13.1391 21.4907 -2.5040 0.0000 -0.0000 -7.8148 -21.9540 9.4989 -3.8058 7.1250 -0.0000 -0.0000 3.5737 -19.7634 2.1590
-2.2906 16.9380 -22.4326 -5.0157 10.1741 1.0446 0.0000 0.0000 0.0000 -13.6560 -8.8167 -13.7672 4.2060 12.4295 37.2690 -0.0193 -21.2177 -14.7927 0.1144 2.1811 6.0065 0.0000 0.0000 0.0000 28.8721 -2.6946 -13.1268 -3.8573 -11.9681 35.6191 -1.9142 -2.0949 -26.9698 -0.1323 -2.3442 6.4578 6.1896 1.2966 1.3024 2.8679 1.9246 -1.2371 -0.5669 0.8979 -1.9043 -3.7825 3.3241 -18.0303 -4.3470 7.6452 29.3881 0.2192 2.3984 12.9010 -0.0000 -0.0000 0.0000 -92.3368 5.2932 23.0297 14.3796 -23.2748 -2.9765 -0.0000 0.0000 -0.5572 17.0512 23.9228 7.0896 -7.1250 0.0000 -0.0000 -12.9575 54.4027 -3.0323 -0.0000 -0.0000 0.0000 88.8968 -4.0784 12.7285 -12.9925 21.2762 -2.4506 0.0000 -0.0000 -8.3133 -22.0140 11.9835 -4.7986 7.1250 -0.0000 -0.0000 3.6097 -17.1004 2.3935
-2.2941 16.9402 -22.4328 -4.9975 10.0873 1.0455 0.0000 0.0000 0.0000 -13.6517 -8.7309 -13.7897 4.2061 12.4297 37.2695 -0.0351 -21.2953 -14.7243 0.1376 2.3908 6.5869 0.0000 0.0000 0.0000 28.8625 -2.6187 -13.1021 -3.8547 -11.9646 35.6068 -1.9031 -2.1792 -26.9285 -0.1173 -2.2085 6.0822 6.1251 1.2461 1.6064 2.8821 1.8904 -1.3587 -0.5248 0.8726 -2.2055 -3.7947 3.3245 -18.0616 -4.3155 7.6512 29.4922 0.2354 2.3982 12.9485 0.0000 0.0000 0.0000 -92.4220 5.4961 22.6804 14.4333 -23.3508 -2.9977 -0.0000 0.0000 -0.2904 15.8786 25.7936 7.0559 -7.1250 0.0000 -0.0000 -15.0912 56.0147 -4.1448 0.0000 0.0000 0.0000 88.9024 -4.2360 13.5485 -12.9111 21.1567 -2.4211 0.0000 -0.0000 -7.7436 -23.5911 13.3979 -5.7781 7.1250 -0.0000 -0.0000 2.5872 -15.4202 1.8080
-2.2950 16.9418 -22.4330 -4.9793 10.0162 1.0588 0.0000 0.0000 0.0000 -13.6700 -8.6915 -13.7797 4.2040 12.4270 37.2597 0.0271 -21.2631 -15.1865 0.1219 2.2505 6.1984 0.0000 0.0000 0.0000 28.8341 -2.7496 -13.1579 -3.8548 -11.9646 35.6069 -1.9002 -2.1413 -26.8931 -0.0956 -1.9940 5.4892 6.1249 1.2633 1.7262 2.8153 1.9288 -1.4642 -0.5989 0.8852 -2.3779 -3.6066 3.2609 -17.9211 -4.3521 7.5145 29.6408 0.1654 2.3513 12.9881 0.0000 -0.0000 0.0000 -92.3027 5.7617 22.7901 14.4767 -23.4121 -3.0149 -0.0000 0.0000 -0.5657 15.4931 26.7407 7.1095 -7.1250 0.0000 -0.0000 -16.0200 56.8562 -4.7383 0.0000 -0.0000 0.0000 89.0161 -4.2828 12.7926 -13.0401 21.3459 -2.4679 0.0000 -0.0000 -7.9339 -21.8018 11.7003 -4.6376 7.1250 -0.0000 -0.0000 3.7472 -17.4224 2.4586
-2.2950 16.9426 -22.4323 -4.9797 9.9748 1.0755 0.0000 0.0000 0.0000 -13.6758 -8.6970 -13.7606 4.1999 12.4218 37.2410 -0.0181 -21.1846 -14.7785 0.1527 2.5178 6.9390 0.0000 0.0000 0.0000 28.8301 -2.7998 -13.1827 -3.8574 -11.9681 35.6193 -1.9191 -1.9717 -26.9530 -0.1035 -2.0746 5.7120 6.1572 1.3553 1.6129 2.7846 2.0406 -1.4501 -0.6487 0.9424 -2.2912 -3.5729 3.0866 -17.7829 -4.3800 7.2573 29.7157 0.1048 2.2385 12.9909 -0.0000 0.0000 0.0000 -92.2437 5.7878 23.0791 14.4540 -23.3801 -3.0059 -0.0000 0.0000 -0.7751 15.5143 25.1743 6.7343 -7.1250 0.0000 -0.0000 -15.1324 55.3374 -3.9055 -0.0000 0.0000 0.0000 89.0981 -4.4716 12.6797 -13.3219 21.7570 -2.5714 0.0000 -0.0000 -8.0162 -22.0701 10.6735 -4.2945 7.1250 -0.0000 -0.0000 3.5241 -18.4964 2.2282
-2.2946 16.9423 -22.4299 -4.9080 9.9610 1.0869 0.0000 0.0000 0.0000 -13.7636 -8.6941 -13.7518 4.1961 12.4169 37.2231 -0.0543 -21.1903 -14.4964 0.1726 2.6765 7.3794 0.0000 0.0000 0.0000 28.7432 -2.7110 -13.1403 -3.8604 -11.9722 35.6339 -1.9340 -1.8376 -27.0005 -0.1364 -2.3806 6.5587 6.0963 1.3469 1.6720 2.7946 2.0354 -1.4877 -0.6066 0.9385 -2.3659 -3.6907 2.9791 -17.7097 -4.3170 7.1225 29.8171 0.1257 2.1720 13.0094 0.0000 -0.0000 0.0000 -92.3440 5.8004 22.9055 14.3957 -23.2975 -2.9828 -0.0000 0.0000 -0.7443 15.0296 24.1808 6.2764 -7.1250 0.0000 -0.0000 -15.1141 54.2741 -3.5055 0.0000 -0.0000 0.0000 89.0572 -4.7417 13.1727 -13.6348 22.2103 -2.6885 0.0000 -0.0000 -8.3735 -22.6936 10.7425 -4.4570 7.1250 -0.0000 -0.0000 3.0863 -18.3692 1.9593
